<?xml version="1.0" encoding="UTF-8" ?>
<!DOCTYPE svg PUBLIC "-//W3C//DTD SVG 1.1//EN" "http://www.w3.org/Graphics/SVG/1.1/DTD/svg11.dtd">
<svg width="1125pt" height="874pt" viewBox="0 0 1125 874" version="1.1" xmlns="http://www.w3.org/2000/svg">
<path fill="#000000" opacity="1.00" d=" M 801.02 8.04 C 862.45 14.62 908.40 79.42 894.14 139.79 C 906.37 145.90 918.10 152.94 929.71 160.16 C 938.33 131.34 935.13 99.57 921.06 73.03 C 990.28 78.43 1036.75 161.26 1007.19 223.84 C 1014.20 230.51 1020.14 238.19 1026.82 245.20 C 1045.85 219.35 1048.58 185.38 1042.34 154.67 C 1106.19 177.06 1132.03 263.94 1092.19 318.17 C 1089.58 324.51 1078.48 328.72 1082.63 336.28 C 1103.99 384.71 1113.66 438.08 1110.97 490.94 C 1106.20 580.94 1063.52 666.79 999.29 729.28 C 870.08 855.02 669.27 893.01 499.59 838.42 C 492.57 836.27 485.82 833.14 478.48 832.22 C 456.49 851.35 428.57 865.10 398.91 865.02 C 384.00 866.07 366.25 854.77 368.95 838.02 C 370.19 819.18 384.71 804.99 397.06 792.15 C 383.29 783.73 369.88 774.74 357.02 765.00 C 332.16 787.04 300.11 803.85 266.16 803.03 C 253.02 801.89 236.78 794.92 235.69 779.91 C 233.68 745.61 265.72 720.60 293.00 705.26 C 245.55 651.03 212.49 582.26 205.86 510.08 C 170.12 525.30 135.15 542.60 99.13 557.11 C 101.35 516.89 107.29 476.97 109.78 436.76 C 84.29 448.91 59.56 462.81 34.09 475.01 C 25.59 458.48 17.00 441.97 8.92 425.24 C 64.71 396.62 120.44 367.91 176.17 339.17 C 171.77 381.68 168.47 424.29 163.75 466.79 C 177.65 462.40 190.18 454.75 203.78 449.62 C 209.30 367.71 246.09 289.48 301.85 229.73 C 306.23 226.40 301.85 220.67 301.49 216.62 C 288.85 175.50 298.53 125.53 333.09 97.81 C 341.93 123.39 357.56 146.02 375.33 166.21 C 500.57 82.20 663.77 60.89 807.61 103.91 C 819.97 72.71 816.47 37.46 801.02 8.04 M 401.82 192.27 C 406.55 199.96 414.58 204.78 420.85 211.10 C 475.04 260.27 536.26 306.05 570.55 372.45 C 582.77 400.22 592.72 430.51 590.44 461.17 C 586.58 422.60 567.14 387.59 542.95 358.05 C 496.96 301.94 435.53 262.04 381.32 214.68 C 359.23 195.21 337.44 173.59 326.59 145.63 C 315.12 176.94 324.95 211.25 340.83 239.17 C 367.54 285.18 407.45 321.73 449.23 353.93 C 394.70 339.86 348.40 303.35 314.38 259.74 C 303.03 272.83 301.73 292.86 312.27 306.82 C 333.93 338.17 368.34 357.01 401.02 374.98 C 428.43 388.59 456.41 401.12 485.22 411.50 C 431.31 410.46 376.19 394.64 332.02 362.98 C 329.67 393.14 341.67 425.38 367.19 442.82 C 405.53 470.16 454.87 473.71 500.34 476.26 C 466.20 480.60 430.81 481.23 396.99 473.98 C 365.88 468.85 334.62 452.04 320.08 422.92 C 305.95 396.80 305.47 366.15 307.75 337.27 C 299.74 328.79 292.18 319.55 287.65 308.70 C 282.91 310.43 281.68 319.15 278.15 323.15 C 229.07 409.68 226.39 520.65 271.97 609.03 C 321.01 709.33 419.47 778.91 525.45 808.56 C 670.02 849.11 836.29 821.36 951.94 722.93 C 931.76 733.20 911.98 744.30 891.98 754.93 C 878.61 746.17 866.51 735.32 852.87 727.16 C 834.76 735.51 818.07 747.40 799.96 756.10 C 790.37 747.33 781.50 737.80 772.24 728.70 L 771.28 728.71 L 772.22 728.69 C 760.56 721.75 749.30 692.00 735.13 710.13 C 719.91 719.86 706.26 732.96 690.29 740.86 C 661.21 718.58 633.06 695.05 603.91 672.85 C 625.70 649.63 647.23 626.14 669.79 603.67 C 678.52 611.50 687.38 619.22 695.22 627.99 C 683.99 642.49 668.77 654.53 658.12 668.83 C 668.60 678.42 680.37 687.63 692.15 695.79 C 711.72 683.40 730.30 668.13 749.85 655.11 C 768.42 673.97 787.01 692.85 806.07 711.22 C 823.08 702.86 838.65 691.85 855.84 683.84 C 867.80 692.66 879.81 701.39 891.74 710.25 C 894.42 713.44 898.20 710.31 901.03 709.12 C 941.00 687.78 981.19 666.77 1020.87 644.94 C 1029.92 634.93 1036.41 622.30 1041.92 609.93 C 1094.80 510.93 1082.96 383.15 1017.11 292.90 C 975.13 231.75 913.31 185.69 845.59 156.42 C 703.70 95.66 531.59 107.62 401.82 192.27 Z" />
<path fill="#ccff00" opacity="1.00" d=" M 401.82 192.27 C 531.59 107.62 703.70 95.66 845.59 156.42 C 913.31 185.69 975.13 231.75 1017.11 292.90 C 982.14 260.71 942.39 233.50 898.98 214.04 C 875.65 189.71 843.45 176.66 811.76 167.16 C 789.48 162.22 764.41 155.68 742.91 166.78 C 634.36 151.14 520.62 164.60 420.85 211.10 C 414.58 204.78 406.55 199.96 401.82 192.27 Z" />
<path fill="#99cc33" opacity="1.00" d=" M 326.59 145.63 C 337.44 173.59 359.23 195.21 381.32 214.68 C 435.53 262.04 496.96 301.94 542.95 358.05 C 567.14 387.59 586.58 422.60 590.44 461.17 C 592.72 430.51 582.77 400.22 570.55 372.45 C 536.26 306.05 475.04 260.27 420.85 211.10 C 520.62 164.60 634.36 151.14 742.91 166.78 C 732.52 179.05 745.01 194.34 754.99 202.08 C 785.84 225.43 823.26 240.14 861.65 244.81 C 875.41 244.66 893.40 248.19 903.53 235.98 C 907.50 228.42 902.98 220.44 898.98 214.04 C 942.39 233.50 982.14 260.71 1017.11 292.90 C 1082.96 383.15 1094.80 510.93 1041.92 609.93 C 998.96 652.80 947.07 685.75 891.74 710.25 C 879.81 701.39 867.80 692.66 855.84 683.84 C 838.65 691.85 823.08 702.86 806.07 711.22 C 787.01 692.85 768.42 673.97 749.85 655.11 C 730.30 668.13 711.72 683.40 692.15 695.79 C 680.37 687.63 668.60 678.42 658.12 668.83 C 668.77 654.53 683.99 642.49 695.22 627.99 C 687.38 619.22 678.52 611.50 669.79 603.67 C 647.23 626.14 625.70 649.63 603.91 672.85 C 633.06 695.05 661.21 718.58 690.29 740.86 C 706.26 732.96 719.91 719.86 735.13 710.13 C 749.30 692.00 760.56 721.75 772.22 728.69 L 771.28 728.71 C 763.49 729.19 755.57 728.26 747.88 729.58 C 734.00 733.00 734.91 754.92 718.33 753.68 C 685.97 753.02 655.31 739.46 623.02 738.07 C 605.76 735.83 595.36 756.46 577.69 751.71 C 553.25 746.44 537.34 724.16 514.52 715.23 C 494.79 709.18 475.07 717.92 455.83 721.76 C 438.80 710.82 421.87 699.65 406.12 686.89 C 399.19 678.43 391.19 670.39 380.95 666.08 C 332.70 625.70 292.15 576.13 262.05 520.89 C 272.76 570.13 296.35 616.15 327.22 655.77 C 307.19 642.22 289.29 625.84 271.97 609.03 C 226.39 520.65 229.07 409.68 278.15 323.15 C 281.68 319.15 282.91 310.43 287.65 308.70 C 292.18 319.55 299.74 328.79 307.75 337.27 C 305.47 366.15 305.95 396.80 320.08 422.92 C 334.62 452.04 365.88 468.85 396.99 473.98 C 430.81 481.23 466.20 480.60 500.34 476.26 C 454.87 473.71 405.53 470.16 367.19 442.82 C 341.67 425.38 329.67 393.14 332.02 362.98 C 376.19 394.64 431.31 410.46 485.22 411.50 C 456.41 401.12 428.43 388.59 401.02 374.98 C 368.34 357.01 333.93 338.17 312.27 306.82 C 301.73 292.86 303.03 272.83 314.38 259.74 C 348.40 303.35 394.70 339.86 449.23 353.93 C 407.45 321.73 367.54 285.18 340.83 239.17 C 324.95 211.25 315.12 176.94 326.59 145.63 M 792.19 347.19 C 723.41 415.98 719.02 535.96 777.53 612.47 C 793.65 632.68 813.97 650.20 838.26 659.72 C 882.88 679.38 937.69 667.82 973.19 635.18 C 1041.14 582.46 1055.73 481.87 1025.13 404.86 C 1010.31 368.04 982.71 333.86 944.05 321.01 C 895.29 293.47 829.98 307.01 792.19 347.19 M 677.69 406.45 C 647.72 414.37 642.71 454.99 652.08 479.98 C 657.28 494.63 673.21 510.41 689.79 502.92 C 715.02 490.05 718.62 455.39 709.89 431.07 C 705.22 417.89 693.07 403.66 677.69 406.45 Z" />
<path fill="#ffffff" opacity="1.00" d=" M 742.91 166.78 C 764.41 155.68 789.48 162.22 811.76 167.16 C 843.45 176.66 875.65 189.71 898.98 214.04 C 902.98 220.44 907.50 228.42 903.53 235.98 C 893.40 248.19 875.41 244.66 861.65 244.81 C 823.26 240.14 785.84 225.43 754.99 202.08 C 745.01 194.34 732.52 179.05 742.91 166.78 Z" />
<path fill="#669900" opacity="1.00" d=" M 792.19 347.19 C 829.98 307.01 895.29 293.47 944.05 321.01 C 903.18 306.61 857.58 324.38 830.50 356.50 C 791.76 401.78 780.63 465.23 789.12 522.91 C 797.68 568.48 819.94 614.42 860.53 639.47 C 894.53 661.10 940.65 658.37 973.19 635.18 C 937.69 667.82 882.88 679.38 838.26 659.72 C 813.97 650.20 793.65 632.68 777.53 612.47 C 719.02 535.96 723.41 415.98 792.19 347.19 Z" />
<path fill="#000000" opacity="1.00" d=" M 830.50 356.50 C 857.58 324.38 903.18 306.61 944.05 321.01 C 982.71 333.86 1010.31 368.04 1025.13 404.86 C 1055.73 481.87 1041.14 582.46 973.19 635.18 C 940.65 658.37 894.53 661.10 860.53 639.47 C 819.94 614.42 797.68 568.48 789.12 522.91 C 780.63 465.23 791.76 401.78 830.50 356.50 M 897.45 351.35 C 855.06 364.17 830.31 407.88 823.54 449.37 L 823.49 448.46 C 811.37 508.98 828.84 588.89 890.06 616.88 C 928.86 632.67 969.90 603.81 986.27 569.32 C 1013.38 521.18 1013.20 460.15 990.99 410.00 C 975.65 374.37 939.18 340.51 897.45 351.35 Z" />
<path fill="#ffffff" opacity="1.00" d=" M 897.45 351.35 C 939.18 340.51 975.65 374.37 990.99 410.00 C 1013.20 460.15 1013.38 521.18 986.27 569.32 C 959.87 589.23 922.03 594.56 892.99 576.98 C 848.19 551.53 827.26 498.63 823.54 449.37 C 830.31 407.88 855.06 364.17 897.45 351.35 M 925.12 446.13 C 909.65 470.81 909.02 503.23 921.76 529.23 C 927.45 542.58 941.43 554.41 956.78 549.98 C 974.96 542.36 984.16 521.92 985.21 503.31 C 973.51 500.53 961.47 499.44 950.09 495.31 C 960.37 483.44 971.14 471.95 980.98 459.71 C 977.62 446.75 967.56 435.10 954.56 431.12 C 942.29 428.39 931.86 436.95 925.12 446.13 Z" />
<path fill="#669900" opacity="1.00" d=" M 677.69 406.45 C 693.07 403.66 705.22 417.89 709.89 431.07 C 718.62 455.39 715.02 490.05 689.79 502.92 C 673.21 510.41 657.28 494.63 652.08 479.98 C 642.71 454.99 647.72 414.37 677.69 406.45 Z" />
<path fill="#000000" opacity="1.00" d=" M 925.12 446.13 C 931.86 436.95 942.29 428.39 954.56 431.12 C 967.56 435.10 977.62 446.75 980.98 459.71 C 971.14 471.95 960.37 483.44 950.09 495.31 C 961.47 499.44 973.51 500.53 985.21 503.31 C 984.16 521.92 974.96 542.36 956.78 549.98 C 941.43 554.41 927.45 542.58 921.76 529.23 C 909.02 503.23 909.65 470.81 925.12 446.13 Z" />
<path fill="#d0d2d3" opacity="1.00" d=" M 823.49 448.46 L 823.54 449.37 C 827.26 498.63 848.19 551.53 892.99 576.98 C 922.03 594.56 959.87 589.23 986.27 569.32 C 969.90 603.81 928.86 632.67 890.06 616.88 C 828.84 588.89 811.37 508.98 823.49 448.46 Z" />
<path fill="#ffffff" opacity="1.00" d=" M 262.05 520.89 C 292.15 576.13 332.70 625.70 380.95 666.08 C 389.10 673.28 397.04 680.84 406.12 686.89 C 421.87 699.65 438.80 710.82 455.83 721.76 C 510.26 756.28 569.16 784.19 630.98 802.60 C 516.70 793.93 399.98 747.48 327.22 655.77 C 296.35 616.15 272.76 570.13 262.05 520.89 Z" />
<path fill="#669900" opacity="1.00" d=" M 271.97 609.03 C 289.29 625.84 307.19 642.22 327.22 655.77 C 399.98 747.48 516.70 793.93 630.98 802.60 C 569.16 784.19 510.26 756.28 455.83 721.76 C 475.07 717.92 494.79 709.18 514.52 715.23 C 537.34 724.16 553.25 746.44 577.69 751.71 C 595.36 756.46 605.76 735.83 623.02 738.07 C 655.31 739.46 685.97 753.02 718.33 753.68 C 734.91 754.92 734.00 733.00 747.88 729.58 C 755.57 728.26 763.49 729.19 771.28 728.71 L 772.24 728.70 C 781.50 737.80 790.37 747.33 799.96 756.10 C 818.07 747.40 834.76 735.51 852.87 727.16 C 866.51 735.32 878.61 746.17 891.98 754.93 C 911.98 744.30 931.76 733.20 951.94 722.93 C 836.29 821.36 670.02 849.11 525.45 808.56 C 419.47 778.91 321.01 709.33 271.97 609.03 Z" />
<path fill="#669900" opacity="1.00" d=" M 891.74 710.25 C 947.07 685.75 998.96 652.80 1041.92 609.93 C 1036.41 622.30 1029.92 634.93 1020.87 644.94 C 981.19 666.77 941.00 687.78 901.03 709.12 C 898.20 710.31 894.42 713.44 891.74 710.25 Z" />
<path fill="#79a81c" opacity="1.00" d=" M 380.95 666.08 C 391.19 670.39 399.19 678.43 406.12 686.89 C 397.04 680.84 389.10 673.28 380.95 666.08 Z" />
</svg>
